<svg width="1400" height="860" viewBox="0 0 1400 860" fill="none" xmlns="http://www.w3.org/2000/svg">
  <rect width="1400" height="860" rx="36" fill="#020617"/>
  <text x="72" y="88" fill="#F8FAFC" font-family="Arial, sans-serif" font-size="34" font-weight="700">Agentic Kubernetes IaC Security Reviewer</text>
  <text x="72" y="126" fill="#94A3B8" font-family="Arial, sans-serif" font-size="20">Scanner-backed review pipeline with retrieval, prioritization, and bounded remediation staging.</text>

  <rect x="88" y="228" width="250" height="136" rx="24" fill="#082F49" stroke="#22D3EE"/>
  <text x="138" y="282" fill="#CFFAFE" font-family="Arial, sans-serif" font-size="24">IaC Inputs</text>
  <text x="126" y="320" fill="#CFFAFE" font-family="Arial, sans-serif" font-size="22">Kubernetes</text>
  <text x="126" y="350" fill="#CFFAFE" font-family="Arial, sans-serif" font-size="22">Terraform / Dockerfiles</text>

  <rect x="416" y="168" width="566" height="536" rx="32" fill="#0F172A" stroke="#334155"/>
  <text x="588" y="222" fill="#E2E8F0" font-family="Arial, sans-serif" font-size="30">Review Control Plane</text>

  <rect x="482" y="268" width="190" height="104" rx="20" fill="#172554" stroke="#60A5FA"/>
  <text x="530" y="329" fill="#DBEAFE" font-family="Arial, sans-serif" font-size="24">Checkov</text>

  <rect x="724" y="268" width="190" height="104" rx="20" fill="#172554" stroke="#60A5FA"/>
  <text x="786" y="329" fill="#DBEAFE" font-family="Arial, sans-serif" font-size="24">Trivy</text>

  <rect x="482" y="418" width="190" height="104" rx="20" fill="#0F766E" stroke="#2DD4BF"/>
  <text x="518" y="480" fill="#CCFBF1" font-family="Arial, sans-serif" font-size="24">Finding Merge</text>

  <rect x="724" y="418" width="190" height="104" rx="20" fill="#0F766E" stroke="#2DD4BF"/>
  <text x="760" y="468" fill="#CCFBF1" font-family="Arial, sans-serif" font-size="24">LLM Review</text>
  <text x="754" y="498" fill="#CCFBF1" font-family="Arial, sans-serif" font-size="20">Prioritize + Explain</text>

  <rect x="603" y="568" width="190" height="92" rx="20" fill="#451A03" stroke="#F59E0B"/>
  <text x="632" y="624" fill="#FEF3C7" font-family="Arial, sans-serif" font-size="24">Control Search</text>

  <rect x="1060" y="198" width="250" height="130" rx="24" fill="#1E293B" stroke="#A78BFA"/>
  <text x="1115" y="274" fill="#E9D5FF" font-family="Arial, sans-serif" font-size="28">Report Output</text>

  <rect x="1060" y="470" width="250" height="130" rx="24" fill="#1E293B" stroke="#A78BFA"/>
  <text x="1102" y="534" fill="#E9D5FF" font-family="Arial, sans-serif" font-size="28">Patches/</text>
  <text x="1082" y="566" fill="#E9D5FF" font-family="Arial, sans-serif" font-size="22">Bounded remediation</text>

  <path d="M338 296H416" stroke="#22D3EE" stroke-width="8" stroke-linecap="round"/>
  <path d="M672 320H724" stroke="#60A5FA" stroke-width="8" stroke-linecap="round"/>
  <path d="M578 372V418" stroke="#2DD4BF" stroke-width="8" stroke-linecap="round"/>
  <path d="M819 372V418" stroke="#2DD4BF" stroke-width="8" stroke-linecap="round"/>
  <path d="M672 470H724" stroke="#2DD4BF" stroke-width="8" stroke-linecap="round"/>
  <path d="M819 522V568H793" stroke="#F59E0B" stroke-width="8" stroke-linecap="round" stroke-linejoin="round"/>
  <path d="M914 320H1060" stroke="#A78BFA" stroke-width="8" stroke-linecap="round"/>
  <path d="M914 470H1060" stroke="#A78BFA" stroke-width="8" stroke-linecap="round"/>
</svg>