<svg width="1400" height="860" viewBox="0 0 1400 860" fill="none" xmlns="http://www.w3.org/2000/svg">
  <rect width="1400" height="860" rx="36" fill="#020617"/>
  <text x="72" y="88" fill="#F8FAFC" font-family="Arial, sans-serif" font-size="34" font-weight="700">Agentic IaC Reviewer Threat Model</text>
  <text x="72" y="126" fill="#94A3B8" font-family="Arial, sans-serif" font-size="20">Trust boundaries around scanner evidence, agent reasoning, staged fixes, and control-backed review output.</text>

  <rect x="96" y="220" width="278" height="124" rx="24" fill="#3F0D12" stroke="#FB7185"/>
  <text x="146" y="290" fill="#FFE4E6" font-family="Arial, sans-serif" font-size="28">Malicious IaC Input</text>

  <rect x="478" y="166" width="470" height="536" rx="32" fill="#0F172A" stroke="#FBBF24" stroke-dasharray="16 10"/>
  <text x="586" y="222" fill="#FEF3C7" font-family="Arial, sans-serif" font-size="28">Trusted Review Boundary</text>

  <rect x="556" y="286" width="306" height="112" rx="22" fill="#172554" stroke="#60A5FA"/>
  <text x="602" y="352" fill="#DBEAFE" font-family="Arial, sans-serif" font-size="28">Scanner Evidence</text>

  <rect x="556" y="448" width="306" height="122" rx="22" fill="#172554" stroke="#60A5FA"/>
  <text x="634" y="510" fill="#DBEAFE" font-family="Arial, sans-serif" font-size="28">Agent Layer</text>
  <text x="600" y="544" fill="#DBEAFE" font-family="Arial, sans-serif" font-size="22">Bounded retries + validation</text>

  <rect x="1026" y="222" width="284" height="122" rx="24" fill="#451A03" stroke="#F59E0B"/>
  <text x="1086" y="292" fill="#FEF3C7" font-family="Arial, sans-serif" font-size="28">False Priority</text>

  <rect x="1026" y="408" width="284" height="122" rx="24" fill="#3F0D12" stroke="#FB7185"/>
  <text x="1068" y="480" fill="#FFE4E6" font-family="Arial, sans-serif" font-size="28">Unsafe Mutation</text>

  <rect x="1026" y="590" width="284" height="132" rx="24" fill="#052E16" stroke="#4ADE80"/>
  <text x="1116" y="648" fill="#DCFCE7" font-family="Arial, sans-serif" font-size="28">Controls</text>
  <text x="1060" y="684" fill="#DCFCE7" font-family="Arial, sans-serif" font-size="22">Separate patches/, validation,</text>
  <text x="1082" y="714" fill="#DCFCE7" font-family="Arial, sans-serif" font-size="22">scanner evidence, citations</text>

  <path d="M374 282H478" stroke="#FB7185" stroke-width="8" stroke-linecap="round"/>
  <path d="M948 282H1026" stroke="#F59E0B" stroke-width="8" stroke-linecap="round"/>
  <path d="M862 508H1026" stroke="#FB7185" stroke-width="8" stroke-linecap="round"/>
  <path d="M948 656H1026" stroke="#4ADE80" stroke-width="8" stroke-linecap="round"/>
</svg>