<svg width="1600" height="1000" viewBox="0 0 1600 1000" fill="none" xmlns="http://www.w3.org/2000/svg">
  <defs>
    <pattern id="grid" width="40" height="40" patternUnits="userSpaceOnUse">
      <path d="M 40 0 L 0 0 0 40" fill="none" stroke="#6366F1" stroke-opacity="0.12" stroke-width="1"/>
    </pattern>
    <pattern id="micro" width="10" height="10" patternUnits="userSpaceOnUse">
      <path d="M 10 0 L 0 0 0 10" fill="none" stroke="#94A3B8" stroke-opacity="0.08" stroke-width="0.5"/>
    </pattern>
  </defs>

  <rect width="1600" height="1000" fill="url(#micro)"/>
  <rect width="1600" height="1000" fill="url(#grid)"/>

  <g stroke="#4F46E5" stroke-opacity="0.16" stroke-width="1.5">
    <path d="M80 220H360V320H540"/>
    <path d="M520 120H720V220H980"/>
    <path d="M1120 180H1440V280"/>
    <path d="M180 620H420V700H720"/>
    <path d="M920 560H1200V700H1420"/>
    <path d="M260 860H520V780H760"/>
  </g>

  <g fill="#6366F1" fill-opacity="0.26">
    <circle cx="360" cy="320" r="4"/>
    <circle cx="540" cy="320" r="4"/>
    <circle cx="720" cy="220" r="4"/>
    <circle cx="980" cy="220" r="4"/>
    <circle cx="1200" cy="700" r="4"/>
    <circle cx="1420" cy="700" r="4"/>
    <circle cx="520" cy="780" r="4"/>
    <circle cx="760" cy="780" r="4"/>
  </g>
</svg>
