<svg width="1400" height="860" viewBox="0 0 1400 860" fill="none" xmlns="http://www.w3.org/2000/svg">
  <rect width="1400" height="860" rx="36" fill="#020617"/>
  <text x="70" y="90" fill="#F8FAFC" font-family="Arial, sans-serif" font-size="34" font-weight="700">AI PDF Reader Architecture</text>
  <text x="70" y="128" fill="#94A3B8" font-family="Arial, sans-serif" font-size="20">Local-first document AI flow across upload, parsing, chunking, retrieval, local models, and desktop packaging.</text>
  <rect x="80" y="220" width="250" height="120" rx="24" fill="#082F49" stroke="#22D3EE"/>
  <text x="145" y="292" fill="#CFFAFE" font-family="Arial, sans-serif" font-size="28">PDF Upload</text>
  <rect x="390" y="220" width="260" height="120" rx="24" fill="#0F766E" stroke="#2DD4BF"/>
  <text x="444" y="278" fill="#CCFBF1" font-family="Arial, sans-serif" font-size="28">Parse +</text>
  <text x="448" y="312" fill="#CCFBF1" font-family="Arial, sans-serif" font-size="28">Chunk</text>
  <rect x="710" y="220" width="270" height="120" rx="24" fill="#172554" stroke="#60A5FA"/>
  <text x="760" y="278" fill="#DBEAFE" font-family="Arial, sans-serif" font-size="28">Embeddings +</text>
  <text x="782" y="312" fill="#DBEAFE" font-family="Arial, sans-serif" font-size="28">Index</text>
  <rect x="1040" y="220" width="280" height="120" rx="24" fill="#1E293B" stroke="#A78BFA"/>
  <text x="1125" y="292" fill="#E9D5FF" font-family="Arial, sans-serif" font-size="28">Ask AI</text>
  <rect x="390" y="470" width="260" height="120" rx="24" fill="#0F172A" stroke="#38BDF8"/>
  <text x="457" y="542" fill="#E2E8F0" font-family="Arial, sans-serif" font-size="28">Local Store</text>
  <rect x="710" y="470" width="270" height="120" rx="24" fill="#0F172A" stroke="#38BDF8"/>
  <text x="761" y="528" fill="#E2E8F0" font-family="Arial, sans-serif" font-size="28">Local LLM +</text>
  <text x="795" y="562" fill="#E2E8F0" font-family="Arial, sans-serif" font-size="28">Embeddings</text>
  <rect x="1040" y="470" width="280" height="120" rx="24" fill="#0F172A" stroke="#38BDF8"/>
  <text x="1100" y="528" fill="#E2E8F0" font-family="Arial, sans-serif" font-size="28">Web +</text>
  <text x="1080" y="562" fill="#E2E8F0" font-family="Arial, sans-serif" font-size="28">Electron Desktop</text>
  <path d="M330 280H390" stroke="#22D3EE" stroke-width="8" stroke-linecap="round"/>
  <path d="M650 280H710" stroke="#22D3EE" stroke-width="8" stroke-linecap="round"/>
  <path d="M980 280H1040" stroke="#22D3EE" stroke-width="8" stroke-linecap="round"/>
  <path d="M520 340V470" stroke="#38BDF8" stroke-width="8" stroke-linecap="round"/>
  <path d="M845 340V470" stroke="#38BDF8" stroke-width="8" stroke-linecap="round"/>
  <path d="M980 530H1040" stroke="#38BDF8" stroke-width="8" stroke-linecap="round"/>
</svg>