<svg width="1400" height="860" viewBox="0 0 1400 860" fill="none" xmlns="http://www.w3.org/2000/svg">
  <rect width="1400" height="860" rx="36" fill="#020617"/>
  <text x="70" y="90" fill="#F8FAFC" font-family="Arial, sans-serif" font-size="34" font-weight="700">Payments Threat Model</text>
  <text x="70" y="128" fill="#94A3B8" font-family="Arial, sans-serif" font-size="20">Threats around public entry points, service privileges, payment events, and settlement integrity.</text>
  <rect x="90" y="210" width="290" height="130" rx="24" fill="#3F0D12" stroke="#FB7185"/>
  <text x="160" y="265" fill="#FFE4E6" font-family="Arial, sans-serif" font-size="28">Replay / Fraud</text>
  <text x="145" y="300" fill="#FFE4E6" font-family="Arial, sans-serif" font-size="24">Public API threats</text>
  <rect x="520" y="190" width="360" height="420" rx="32" fill="#0F172A" stroke="#FBBF24" stroke-dasharray="16 10"/>
  <text x="595" y="235" fill="#FEF3C7" font-family="Arial, sans-serif" font-size="28">Trust Boundary</text>
  <rect x="580" y="310" width="240" height="110" rx="24" fill="#172554" stroke="#60A5FA"/>
  <text x="640" y="375" fill="#DBEAFE" font-family="Arial, sans-serif" font-size="28">Core Services</text>
  <rect x="980" y="210" width="290" height="130" rx="24" fill="#451A03" stroke="#F59E0B"/>
  <text x="1044" y="265" fill="#FEF3C7" font-family="Arial, sans-serif" font-size="28">Event Tamper</text>
  <text x="1040" y="300" fill="#FEF3C7" font-family="Arial, sans-serif" font-size="24">Queue / ledger risks</text>
  <rect x="90" y="560" width="290" height="140" rx="24" fill="#052E16" stroke="#4ADE80"/>
  <text x="140" y="620" fill="#DCFCE7" font-family="Arial, sans-serif" font-size="28">Mitigations</text>
  <text x="130" y="660" fill="#DCFCE7" font-family="Arial, sans-serif" font-size="22">MFA, short-lived tokens,</text>
  <text x="128" y="690" fill="#DCFCE7" font-family="Arial, sans-serif" font-size="22">signed events, audit logs</text>
  <rect x="980" y="560" width="290" height="140" rx="24" fill="#052E16" stroke="#4ADE80"/>
  <text x="1040" y="620" fill="#DCFCE7" font-family="Arial, sans-serif" font-size="28">Controls</text>
  <text x="1018" y="660" fill="#DCFCE7" font-family="Arial, sans-serif" font-size="22">Least privilege, encryption,</text>
  <text x="1012" y="690" fill="#DCFCE7" font-family="Arial, sans-serif" font-size="22">ledger validation, alerting</text>
  <path d="M380 275H520" stroke="#FB7185" stroke-width="8" stroke-linecap="round"/>
  <path d="M880 275H980" stroke="#F59E0B" stroke-width="8" stroke-linecap="round"/>
  <path d="M380 630H580" stroke="#4ADE80" stroke-width="8" stroke-linecap="round"/>
  <path d="M820 630H980" stroke="#4ADE80" stroke-width="8" stroke-linecap="round"/>
</svg>