<svg width="1400" height="860" viewBox="0 0 1400 860" fill="none" xmlns="http://www.w3.org/2000/svg">
  <rect width="1400" height="860" rx="36" fill="#020617"/>
  <text x="70" y="90" fill="#F8FAFC" font-family="Arial, sans-serif" font-size="34" font-weight="700">Platform Threat Model</text>
  <text x="70" y="128" fill="#94A3B8" font-family="Arial, sans-serif" font-size="20">Supply chain, secrets, privilege, and policy-drift risks across the developer platform.</text>
  <rect x="90" y="220" width="280" height="120" rx="24" fill="#3F0D12" stroke="#FB7185"/>
  <text x="140" y="290" fill="#FFE4E6" font-family="Arial, sans-serif" font-size="28">Pipeline Compromise</text>
  <rect x="480" y="170" width="450" height="500" rx="32" fill="#0F172A" stroke="#FBBF24" stroke-dasharray="16 10"/>
  <text x="600" y="225" fill="#FEF3C7" font-family="Arial, sans-serif" font-size="28">Platform Trust Boundary</text>
  <rect x="560" y="300" width="290" height="120" rx="24" fill="#172554" stroke="#60A5FA"/>
  <text x="620" y="372" fill="#DBEAFE" font-family="Arial, sans-serif" font-size="28">Identity + Secrets</text>
  <rect x="560" y="470" width="290" height="120" rx="24" fill="#172554" stroke="#60A5FA"/>
  <text x="630" y="542" fill="#DBEAFE" font-family="Arial, sans-serif" font-size="28">Policy Engine</text>
  <rect x="1020" y="220" width="290" height="120" rx="24" fill="#451A03" stroke="#F59E0B"/>
  <text x="1070" y="290" fill="#FEF3C7" font-family="Arial, sans-serif" font-size="28">Privilege Drift</text>
  <rect x="1020" y="520" width="290" height="130" rx="24" fill="#052E16" stroke="#4ADE80"/>
  <text x="1112" y="580" fill="#DCFCE7" font-family="Arial, sans-serif" font-size="28">Controls</text>
  <text x="1060" y="620" fill="#DCFCE7" font-family="Arial, sans-serif" font-size="22">Signed builds, approvals,</text>
  <text x="1055" y="650" fill="#DCFCE7" font-family="Arial, sans-serif" font-size="22">federated identity, logging</text>
  <path d="M370 280H480" stroke="#FB7185" stroke-width="8" stroke-linecap="round"/>
  <path d="M930 280H1020" stroke="#F59E0B" stroke-width="8" stroke-linecap="round"/>
  <path d="M930 585H1020" stroke="#4ADE80" stroke-width="8" stroke-linecap="round"/>
</svg>