<svg width="1400" height="860" viewBox="0 0 1400 860" fill="none" xmlns="http://www.w3.org/2000/svg">
  <rect width="1400" height="860" rx="36" fill="#020617"/>
  <text x="70" y="90" fill="#F8FAFC" font-family="Arial, sans-serif" font-size="34" font-weight="700">Secure Developer Platform and Landing Zone</text>
  <text x="70" y="128" fill="#94A3B8" font-family="Arial, sans-serif" font-size="20">Connectivity, identity, policy, observability, and workload delivery assembled as a paved road.</text>
  <rect x="100" y="210" width="280" height="130" rx="24" fill="#082F49" stroke="#22D3EE"/>
  <text x="170" y="287" fill="#CFFAFE" font-family="Arial, sans-serif" font-size="28">Developers</text>
  <rect x="450" y="170" width="520" height="500" rx="32" fill="#0F172A" stroke="#334155"/>
  <text x="590" y="225" fill="#E2E8F0" font-family="Arial, sans-serif" font-size="30">Platform Control Plane</text>
  <rect x="520" y="270" width="180" height="100" rx="20" fill="#0F766E" stroke="#2DD4BF"/>
  <text x="560" y="330" fill="#CCFBF1" font-family="Arial, sans-serif" font-size="24">Identity</text>
  <rect x="735" y="270" width="180" height="100" rx="20" fill="#172554" stroke="#60A5FA"/>
  <text x="790" y="330" fill="#DBEAFE" font-family="Arial, sans-serif" font-size="24">Policy</text>
  <rect x="520" y="415" width="180" height="100" rx="20" fill="#172554" stroke="#60A5FA"/>
  <text x="548" y="475" fill="#DBEAFE" font-family="Arial, sans-serif" font-size="24">Observability</text>
  <rect x="735" y="415" width="180" height="100" rx="20" fill="#0F766E" stroke="#2DD4BF"/>
  <text x="770" y="475" fill="#CCFBF1" font-family="Arial, sans-serif" font-size="24">Pipelines</text>
  <rect x="1030" y="210" width="270" height="130" rx="24" fill="#1E293B" stroke="#A78BFA"/>
  <text x="1085" y="287" fill="#E9D5FF" font-family="Arial, sans-serif" font-size="28">Workloads</text>
  <rect x="1030" y="460" width="270" height="130" rx="24" fill="#1E293B" stroke="#A78BFA"/>
  <text x="1068" y="537" fill="#E9D5FF" font-family="Arial, sans-serif" font-size="28">SOC / Audit</text>
  <path d="M380 275H450" stroke="#22D3EE" stroke-width="8" stroke-linecap="round"/>
  <path d="M970 275H1030" stroke="#A78BFA" stroke-width="8" stroke-linecap="round"/>
  <path d="M970 525H1030" stroke="#A78BFA" stroke-width="8" stroke-linecap="round"/>
</svg>