<svg width="1400" height="860" viewBox="0 0 1400 860" fill="none" xmlns="http://www.w3.org/2000/svg">
  <rect width="1400" height="860" rx="36" fill="#020617"/>
  <text x="70" y="90" fill="#F8FAFC" font-family="Arial, sans-serif" font-size="34" font-weight="700">Cloud SOC Analytics Workbench</text>
  <text x="70" y="128" fill="#94A3B8" font-family="Arial, sans-serif" font-size="20">Telemetry ingestion, enrichment pipelines, controlled analyst access, and response workflows.</text>
  <rect x="80" y="220" width="280" height="120" rx="24" fill="#082F49" stroke="#22D3EE"/>
  <text x="150" y="292" fill="#CFFAFE" font-family="Arial, sans-serif" font-size="28">Telemetry Sources</text>
  <rect x="420" y="220" width="260" height="120" rx="24" fill="#0F766E" stroke="#2DD4BF"/>
  <text x="482" y="292" fill="#CCFBF1" font-family="Arial, sans-serif" font-size="28">Ingestion Bus</text>
  <rect x="740" y="220" width="270" height="120" rx="24" fill="#172554" stroke="#60A5FA"/>
  <text x="792" y="292" fill="#DBEAFE" font-family="Arial, sans-serif" font-size="28">Enrichment</text>
  <rect x="1070" y="220" width="250" height="120" rx="24" fill="#1E293B" stroke="#A78BFA"/>
  <text x="1122" y="292" fill="#E9D5FF" font-family="Arial, sans-serif" font-size="28">Workbench</text>
  <rect x="520" y="470" width="360" height="120" rx="24" fill="#0F172A" stroke="#38BDF8"/>
  <text x="583" y="542" fill="#E2E8F0" font-family="Arial, sans-serif" font-size="28">Evidence Store + Audit</text>
  <rect x="950" y="470" width="280" height="120" rx="24" fill="#0F172A" stroke="#38BDF8"/>
  <text x="1012" y="542" fill="#E2E8F0" font-family="Arial, sans-serif" font-size="28">Response Tools</text>
  <path d="M360 280H420" stroke="#22D3EE" stroke-width="8" stroke-linecap="round"/>
  <path d="M680 280H740" stroke="#22D3EE" stroke-width="8" stroke-linecap="round"/>
  <path d="M1010 280H1070" stroke="#22D3EE" stroke-width="8" stroke-linecap="round"/>
  <path d="M875 340V470" stroke="#38BDF8" stroke-width="8" stroke-linecap="round"/>
  <path d="M1010 530H950" stroke="#38BDF8" stroke-width="8" stroke-linecap="round"/>
</svg>