<svg width="1400" height="860" viewBox="0 0 1400 860" fill="none" xmlns="http://www.w3.org/2000/svg">
  <rect width="1400" height="860" rx="36" fill="#020617"/>
  <text x="70" y="90" fill="#F8FAFC" font-family="Arial, sans-serif" font-size="34" font-weight="700">SOC Workbench Threat Model</text>
  <text x="70" y="128" fill="#94A3B8" font-family="Arial, sans-serif" font-size="20">Risks across telemetry integrity, analyst access, response automation, and evidence retention.</text>
  <rect x="90" y="230" width="280" height="120" rx="24" fill="#3F0D12" stroke="#FB7185"/>
  <text x="145" y="300" fill="#FFE4E6" font-family="Arial, sans-serif" font-size="28">Data Poisoning</text>
  <rect x="500" y="180" width="380" height="460" rx="32" fill="#0F172A" stroke="#FBBF24" stroke-dasharray="16 10"/>
  <text x="590" y="235" fill="#FEF3C7" font-family="Arial, sans-serif" font-size="28">Sensitive Telemetry Zone</text>
  <rect x="570" y="310" width="240" height="110" rx="24" fill="#172554" stroke="#60A5FA"/>
  <text x="635" y="378" fill="#DBEAFE" font-family="Arial, sans-serif" font-size="28">Analyst Access</text>
  <rect x="570" y="470" width="240" height="110" rx="24" fill="#172554" stroke="#60A5FA"/>
  <text x="643" y="538" fill="#DBEAFE" font-family="Arial, sans-serif" font-size="28">Evidence Store</text>
  <rect x="1000" y="230" width="290" height="120" rx="24" fill="#451A03" stroke="#F59E0B"/>
  <text x="1068" y="300" fill="#FEF3C7" font-family="Arial, sans-serif" font-size="28">Insider Misuse</text>
  <rect x="1000" y="520" width="290" height="130" rx="24" fill="#052E16" stroke="#4ADE80"/>
  <text x="1086" y="580" fill="#DCFCE7" font-family="Arial, sans-serif" font-size="28">Controls</text>
  <text x="1032" y="620" fill="#DCFCE7" font-family="Arial, sans-serif" font-size="22">RBAC, approvals, immutable</text>
  <text x="1042" y="650" fill="#DCFCE7" font-family="Arial, sans-serif" font-size="22">audit, query monitoring</text>
  <path d="M370 290H500" stroke="#FB7185" stroke-width="8" stroke-linecap="round"/>
  <path d="M880 290H1000" stroke="#F59E0B" stroke-width="8" stroke-linecap="round"/>
  <path d="M880 585H1000" stroke="#4ADE80" stroke-width="8" stroke-linecap="round"/>
</svg>